<?xml version="1.0" encoding="UTF-8"?>
<svg width="269px" height="68px" viewBox="0 0 269 68" version="1.1" xmlns="http://www.w3.org/2000/svg" xmlns:xlink="http://www.w3.org/1999/xlink">
    <!-- Generator: Sketch 49.3 (51167) - http://www.bohemiancoding.com/sketch -->
    <title>Page 1</title>
    <desc>Created with Sketch.</desc>
    <defs></defs>
    <g id="Page-1" stroke="none" stroke-width="1" fill="none" fill-rule="evenodd">
        <g id="Landing" transform="translate(-78.000000, -77.000000)">
            <g id="Page-1" transform="translate(78.000000, 77.000000)">
                <path d="M23.6582786,0 L0,55 L48,55 L23.6582786,0 Z M23.9456035,18.3249492 L36.84454,47.859502 L33.1846342,47.859502 L29.5052014,39.148374 L18.4250596,39.148374 L14.7428372,47.859502 L11.0857209,47.859502 L23.9456035,18.3249492 Z" id="Fill-1" fill="#00C0DA"></path>
                <polygon id="Fill-2" fill="#00C0DA" points="24.5 26 20 37 29 37"></polygon>
                <polygon id="Fill-3" fill="#0083B2" points="9 55 9.1073925 68 48 55"></polygon>
                <polyline id="Fill-4" fill="#0083B2" points="9.2293373 35 9 10 17 18.3269082"></polyline>
                <g id="Group-19" transform="translate(50.000000, 18.000000)" fill="#FFFFFF">
                    <path d="M3.92012315,17.3374805 L3.92012315,27.9074115 L6.51344815,27.9074115 C8.29393994,27.9074115 9.57677875,27.8389977 10.3647293,27.6936184 C11.1526799,27.5453885 11.7830403,27.2945379 12.2558107,26.9382161 C12.8308763,26.5134805 13.2842935,25.9291126 13.6188269,25.1765609 C13.9505955,24.4240092 14.1164799,23.5916414 14.1164799,22.682308 C14.1164799,21.630446 13.9201834,20.7125609 13.5248258,19.9315034 C13.1267034,19.1589977 12.548873,18.5518253 11.796864,18.1099862 C11.3489763,17.8306299 10.8319702,17.6310897 10.2430808,17.5142161 C9.65419144,17.3916414 8.73906289,17.3374805 7.49769517,17.3374805 L6.51897763,17.3374805 L3.92012315,17.3374805 Z M3.92012315,4.92892874 L3.92012315,14.6294345 L6.51344815,14.6294345 C8.89388826,14.6294345 10.5720847,14.2731126 11.5452728,13.560469 C12.5184608,12.8478253 13.0022901,11.6477333 13.0022901,9.95734253 C13.0022901,8.09591724 12.5516377,6.7932046 11.6503329,6.0492046 C10.749028,5.30235402 9.03765468,4.92892874 6.51344815,4.92892874 L3.92012315,4.92892874 Z M0.657731362,30.9147678 L0.657731362,1.93867586 L6.51068341,1.93867586 C8.57317856,1.93867586 10.0910202,2.0469977 11.0725024,2.26364138 C12.05122,2.48028506 12.8917006,2.85371034 13.596709,3.38391724 C14.4924843,4.06805517 15.1864338,4.95173333 15.6785573,6.0264 C16.1706808,7.10106667 16.4167426,8.2812046 16.4167426,9.55826207 C16.4167426,11.0918713 16.062856,12.3689287 15.3523181,13.4008368 C14.6417802,14.4327448 13.6077679,15.1482391 12.2530459,15.5587218 C13.9174187,15.8238253 15.2306696,16.5906299 16.1983282,17.8676874 C17.1659868,19.1361931 17.6470513,20.7496184 17.6470513,22.682308 C17.6470513,23.8453425 17.4424607,24.9542161 17.0332793,26.0117793 C16.624098,27.0636414 16.0545618,27.9729747 15.3246707,28.7198253 C14.5311907,29.5236874 13.5524732,30.0881011 12.3885181,30.4216184 C11.2245631,30.7551356 9.267128,30.9233195 6.51344815,30.9233195 L0.657731362,30.9233195 L0.657731362,30.9147678 Z" id="Fill-5"></path>
                    <path d="M43.9925239,14.8224184 C45.822781,15.629131 47.1996209,16.6980966 48.1313379,18.0321655 C49.0575254,19.3690851 49.5220015,20.9426023 49.5220015,22.761269 C49.5220015,25.4322575 48.7008741,27.5730391 47.0530897,29.2035678 C45.4080701,30.8340966 43.2322207,31.6436598 40.5172472,31.6436598 C38.3054562,31.6436598 36.4475517,31.0621425 34.9490632,29.8934069 C33.4533396,28.7303724 32.4414451,27.0713379 31.9161448,24.919154 L34.9490632,23.3741425 C35.3582446,25.1300966 36.0328409,26.4613149 36.9756168,27.3620966 C37.915628,28.2628782 39.0961715,28.7189701 40.5172472,28.7189701 C42.1954437,28.7189701 43.5501657,28.2201195 44.5869427,27.225269 C45.6237198,26.2304184 46.1407259,24.9305563 46.1407259,23.3399356 C46.1407259,22.0486253 45.7785451,20.9169471 45.0541836,19.959154 C44.329822,19.0070621 43.2405149,18.2003494 41.7807328,17.5361655 L38.3635157,16.0339126 C36.4945522,15.2300506 35.1011239,14.1895908 34.1859953,12.9239356 C33.2708668,11.6582805 32.8146849,10.1389241 32.8146849,8.37156782 C32.8146849,6.31345287 33.5556349,4.61165977 35.0430644,3.26333793 C36.5277291,1.91786667 38.4215752,1.24513103 40.7246026,1.24513103 C42.413858,1.24513103 43.8764049,1.61570575 45.1094784,2.35685517 C46.3453166,3.09515402 47.3074457,4.18407356 47.9986304,5.62076322 L45.2338916,7.44513103 C44.6035312,6.3220046 43.9012875,5.48678621 43.1216312,4.93947586 C42.3419748,4.39216552 41.4572584,4.11851034 40.4730114,4.11851034 C39.21782,4.11851034 38.1921019,4.5175908 37.3930924,5.3072 C36.5913181,6.09965977 36.1931957,7.10876322 36.1931957,8.33451034 C36.1931957,9.36356782 36.5000817,10.2557977 37.1138537,11.0083494 C37.7303905,11.7637517 38.6814606,12.4279356 39.9753584,13.0094529 L43.9925239,14.8224184 Z" id="Fill-7"></path>
                    <polygon id="Fill-9" points="69.8986794 30.9139126 69.8986794 5.22453333 61.9500554 5.22453333 61.9500554 1.93782069 81.187108 1.93782069 81.187108 5.22453333 73.2744255 5.22453333 73.2744255 30.9139126"></polygon>
                    <path d="M99.1836223,4.84825747 L99.1836223,14.5430621 L101.738241,14.5430621 C104.342625,14.5430621 106.095469,14.1981425 106.977421,13.5083034 C107.853843,12.8156138 108.304496,11.6041195 108.304496,9.87667126 C108.304496,8.01809655 107.845549,6.71253333 106.944244,5.96853333 C106.03188,5.22453333 104.298389,4.84825747 101.738241,4.84825747 L99.1836223,4.84825747 Z M95.9239952,30.9139126 L95.9239952,1.93782069 L102.531721,1.93782069 C104.406214,1.93782069 105.788583,2.04614253 106.659476,2.26278621 C107.538663,2.47942989 108.315555,2.85285517 108.973562,3.38306207 C109.811278,4.0557977 110.449933,4.95657931 110.914409,6.08255632 C111.373356,7.21138391 111.605594,8.46278621 111.605594,9.83391264 C111.605594,12.211292 110.966939,14.0157057 109.675806,15.2414529 C108.387438,16.4786023 106.504651,17.0914759 104.027445,17.0914759 L103.430261,17.0914759 L114.157448,30.9110621 L109.913574,30.9110621 L99.6702163,17.0914759 L99.1891518,17.0914759 L99.1891518,30.9110621 L95.9239952,30.9110621 L95.9239952,30.9139126 Z" id="Fill-11"></path>
                    <path d="M136.853189,8.41147586 L132.382606,19.0783264 L141.326536,19.0783264 L136.853189,8.41147586 Z M136.853189,0.78903908 L149.640106,30.9139126 L146.012768,30.9139126 L142.363313,22.0286713 L131.384535,22.0286713 L127.740609,30.9139126 L124.116037,30.9139126 L136.853189,0.78903908 Z" id="Fill-13"></path>
                    <path d="M185.659952,8.8650023 C184.324583,7.36274943 182.884154,6.25102529 181.360783,5.53268046 C179.831883,4.81148506 178.153686,4.45231264 176.31237,4.45231264 C174.827705,4.45231264 173.378982,4.76302529 171.960671,5.38445057 C170.545125,6.00302529 169.325875,6.8696 168.283569,7.97562299 C167.213615,9.11870345 166.409076,10.4071632 165.864422,11.8238989 C165.330828,13.2434851 165.059883,14.8113011 165.059883,16.5273471 C165.059883,17.8699678 165.223003,19.1071172 165.543713,20.2473471 C165.858893,21.3818759 166.342722,22.4251862 166.981377,23.3744276 C168.10939,25.0249103 169.49176,26.2934161 171.134014,27.185646 C172.776269,28.0778759 174.551232,28.5225655 176.464431,28.5225655 C178.255982,28.5225655 179.920354,28.1377379 181.460314,27.3766345 C183.005803,26.615531 184.396466,25.4667494 185.665482,23.9530943 L185.665482,28.5254161 C184.272053,29.5658759 182.765271,30.3611862 181.161722,30.8913931 C179.552644,31.4273011 177.888271,31.6924046 176.182427,31.6924046 C174.697763,31.6924046 173.246275,31.4643586 171.841788,31.0082667 C170.4373,30.5521747 169.11852,29.8908414 167.893741,29.0214161 C165.842304,27.5533701 164.274697,25.7546575 163.19092,23.6167264 C162.109907,21.481646 161.570783,19.1327724 161.570783,16.5701057 C161.570783,14.3409563 161.932964,12.3113471 162.65456,10.4841287 C163.381687,8.65405977 164.482053,6.99502529 165.966718,5.50702529 C167.401617,4.08173793 168.988577,3.01562299 170.727598,2.31153103 C172.469383,1.60458851 174.368759,1.25111724 176.431254,1.25111724 C178.051391,1.25111724 179.627292,1.50481839 181.150663,2.01507126 C182.679564,2.52532414 184.175287,3.30923218 185.665482,4.38104828 L185.665482,8.86785287 L185.659952,8.8650023 Z" id="Fill-15"></path>
                    <polygon id="Fill-17" points="207.289057 30.9139126 207.289057 5.22453333 199.340433 5.22453333 199.340433 1.93782069 218.574721 1.93782069 218.574721 5.22453333 210.667568 5.22453333 210.667568 30.9139126"></polygon>
                </g>
            </g>
        </g>
    </g>
</svg>